<svg xmlns="http://www.w3.org/2000/svg" width="64" height="64" fill="none" viewBox="0 0 24 24"><g fill="#312e81"><path d="M8 5a1 1 0 0 0 0 2h4.234l-3.73 2.132A1 1 0 0 0 9 11h4.8c.11 0 .2.09.2.2v2.303a.2.2 0 0 1-.059.141l-1.8 1.8a.2.2 0 0 1-.282 0l-2.152-2.151a1 1 0 0 0-1.414 1.414l3 3a1 1 0 0 0 1.414 0l3-3A1 1 0 0 0 16 14v-4a1 1 0 0 0-1-1h-2.234l3.73-2.132A1 1 0 0 0 16 5z"/><path fill-rule="evenodd" d="M4.306 1a3 3 0 0 0-2.97 3.424l1.57 10.983a3 3 0 0 0 .994 1.834l6.124 5.36a3 3 0 0 0 3.952 0l6.124-5.36a3 3 0 0 0 .995-1.834l1.569-10.983A3 3 0 0 0 19.694 1zm-.99 3.141A1 1 0 0 1 4.306 3h15.388a1 1 0 0 1 .99 1.141l-1.57 10.984a1 1 0 0 1-.33.61l-6.125 5.36a1 1 0 0 1-1.318 0l-6.124-5.36a1 1 0 0 1-.332-.61z" clip-rule="evenodd"/></g></svg>