<svg xmlns="http://www.w3.org/2000/svg" width="64" height="64" fill="none" viewBox="0 0 24 24"><g fill="#312e81"><path d="M13 6a1 1 0 0 1 1-1h3a1 1 0 1 1 0 2h-1.8a.2.2 0 0 0-.2.2v1.6c0 .11.09.2.2.2H17a1 1 0 0 1 1 1v3a1 1 0 0 1-.293.707l-3 3a1 1 0 0 1-1.414-1.414l2.648-2.649a.2.2 0 0 0 .059-.141V11.2a.2.2 0 0 0-.2-.2H14a1 1 0 0 1-1-1zM11 6a1 1 0 1 0-2 0v7.103a.2.2 0 0 1-.341.141l-.6-.6A.2.2 0 0 1 8 12.503V12a1 1 0 1 0-2 0v1a1 1 0 0 0 .293.707l3 3A1 1 0 0 0 11 16z"/><path fill-rule="evenodd" d="M1.336 4.424A3 3 0 0 1 4.306 1h15.388a3 3 0 0 1 2.97 3.424l-1.57 10.983a3 3 0 0 1-.994 1.834l-6.125 5.36a3 3 0 0 1-3.95 0L3.9 17.24a3 3 0 0 1-.995-1.834zM4.306 3a1 1 0 0 0-.99 1.141l1.57 10.984a1 1 0 0 0 .33.61l6.126 5.36a1 1 0 0 0 1.316 0l6.126-5.36a1 1 0 0 0 .33-.61l1.57-10.984A1 1 0 0 0 19.694 3z" clip-rule="evenodd"/></g></svg>