<svg xmlns="http://www.w3.org/2000/svg" width="64" height="64" fill="#312e81" viewBox="0 0 32 32"><path d="M14.313 22.211c.55.025 1.112.043 1.681.043q.863.002 1.7-.043a24 24 0 0 1-1.689 1.964l.008-.008a25 25 0 0 1-1.659-1.902zm-5.698-.8c1.083.275 2.404.509 3.752.653l.131.011a30 30 0 0 0 2.554 3.068l-.011-.012a9 9 0 0 1-5.081 2.86l-.055.008h-.012a1.5 1.5 0 0 1-.687-.169l.008.004c-.832-.475-1.193-2.292-.912-4.627.067-.575.177-1.18.312-1.797zm14.783-.013c.118.474.229 1.078.308 1.692l.009.086c.287 2.334-.067 4.149-.892 4.634a1.3 1.3 0 0 1-.638.162l-.069-.002h.003a9.08 9.08 0 0 1-5.129-2.841l-.007-.008a29 29 0 0 0 2.466-2.965l.058-.084a29 29 0 0 0 4.088-.717zM9.784 17.666c.25.49.512.978.8 1.468q.431.731.881 1.428a27 27 0 0 1-2.507-.482 27 27 0 0 1 .825-2.416zm12.428-.025c.331.821.612 1.64.845 2.434-.8.196-1.645.362-2.519.487a32 32 0 0 0 1.676-2.922zM7.619 12.292a29 29 0 0 0 1.449 3.906l-.075-.182a27 27 0 0 0-1.305 3.499l-.052.205a17 17 0 0 1-1.827-.669l.115.044c-2.164-.921-3.564-2.132-3.564-3.092s1.4-2.177 3.564-3.094c.525-.225 1.1-.428 1.694-.617zm16.739-.005q.91.282 1.718.622c2.164.925 3.564 2.134 3.564 3.094-.006.96-1.406 2.174-3.57 3.093-.525.225-1.1.427-1.693.616a29.4 29.4 0 0 0-1.451-3.912l.076.188a27 27 0 0 0 1.303-3.498l.053-.206zm-3.828-.843c.869.129 1.706.287 2.507.484-.225.79-.506 1.602-.825 2.416a32.183 32.183 0 0 0-1.681-2.899zm-9.072 0c-.3.471-.6.953-.88 1.45q-.42.731-.794 1.467a26 26 0 0 1-.845-2.433c.8-.187 1.643-.354 2.518-.482zM16 11.126c.925 0 1.846.042 2.752.116q.761 1.091 1.478 2.324.697 1.2 1.272 2.432a34 34 0 0 1-1.266 2.437c-.475.825-.966 1.61-1.475 2.337a32 32 0 0 1-5.514.006 34 34 0 0 1-1.478-2.324q-.697-1.2-1.272-2.432a32 32 0 0 1 1.266-2.442 31 31 0 0 1 1.475-2.334q1.366-.121 2.762-.122zm-.019-3.281c.58.6 1.136 1.237 1.659 1.901l.04.053a37 37 0 0 0-1.681-.042q-.863-.002-1.7.042a24 24 0 0 1 1.689-1.964l-.008.008zM9.88 4.033a9.1 9.1 0 0 1 5.129 2.841l.007.008A29 29 0 0 0 12.55 9.85l-.058.084a28.5 28.5 0 0 0-4.086.714l.196-.042a19 19 0 0 1-.317-1.774c-.287-2.334.067-4.149.892-4.632.206-.097.447-.157.701-.165h.003zm12.21-.025v.008l.044-.001c.239 0 .464.059.662.163l-.008-.004c.832.477 1.193 2.293.912 4.629a19 19 0 0 1-.312 1.799 27 27 0 0 0-3.754-.656l-.128-.011a30 30 0 0 0-2.555-3.07l.012.012a9.04 9.04 0 0 1 5.074-2.859l.056-.009zm.006-1.362a10.24 10.24 0 0 0-6.1 3.268l-.008.009a10.22 10.22 0 0 0-6.051-3.245l-.056-.007h-.045c-.491 0-.952.129-1.351.355l.014-.007c-1.718.991-2.103 4.079-1.216 7.954-3.804 1.175-6.278 3.053-6.278 5.032 0 1.987 2.487 3.87 6.302 5.036-.88 3.89-.487 6.983 1.235 7.973.378.217.832.344 1.315.344l.065-.001h-.003a10.24 10.24 0 0 0 6.1-3.27l.008-.009a10.22 10.22 0 0 0 6.051 3.246l.056.007h.052c.488 0 .947-.128 1.344-.351l-.014.007c1.717-.99 2.103-4.078 1.216-7.954 3.79-1.165 6.264-3.047 6.264-5.029 0-1.987-2.487-3.87-6.302-5.039.88-3.886.487-6.982-1.235-7.973a2.7 2.7 0 0 0-1.328-.348h-.039.002zm-3.309 13.359a2.794 2.794 0 1 1-.818-1.976c.506.506.818 1.204.818 1.976"/></svg>